<?xml version="1.0" standalone="no"?>
<!DOCTYPE svg PUBLIC "-//W3C//DTD SVG 20010904//EN"
 "http://www.w3.org/TR/2001/REC-SVG-20010904/DTD/svg10.dtd">
<svg version="1.0" xmlns="http://www.w3.org/2000/svg"
 width="452.000000pt" height="452.000000pt" viewBox="0 0 452.000000 452.000000"
 preserveAspectRatio="xMidYMid meet">
<metadata>
Created by potrace 1.14, written by Peter Selinger 2001-2017
</metadata>
<g transform="translate(0.000000,452.000000) scale(0.100000,-0.100000)"
fill="#000000" stroke="none">
<path d="M2120 4417 c-3 -3 -40 -8 -84 -11 -197 -16 -460 -93 -674 -197 -99
-48 -362 -211 -382 -238 -10 -13 -138 -121 -144 -121 -3 0 -29 -11 -58 -25
-179 -83 -313 -240 -381 -445 -19 -56 -47 -191 -47 -223 0 -13 -20 -84 -44
-158 -77 -233 -101 -391 -101 -659 1 -243 25 -409 94 -625 11 -33 22 -103 25
-156 6 -104 40 -238 82 -329 73 -157 199 -276 365 -345 35 -15 80 -42 99 -60
19 -18 73 -63 120 -99 47 -37 90 -71 97 -76 7 -5 54 -35 105 -66 258 -157 553
-259 848 -292 161 -18 513 -5 610 23 8 2 31 7 50 10 164 27 501 160 626 246
24 16 45 29 48 29 17 0 218 153 286 218 19 19 67 49 107 68 165 79 283 209
366 404 29 68 70 197 81 255 2 5 8 35 14 65 6 30 14 73 17 95 3 22 12 63 19
90 14 48 40 169 51 230 14 83 20 176 20 330 -1 187 -5 238 -35 400 -5 28 -12
85 -15 128 -6 75 -9 94 -20 165 -3 17 -8 48 -10 67 -11 82 -64 253 -110 351
-89 190 -248 335 -429 394 -22 7 -85 49 -140 94 -121 97 -218 162 -340 226
-95 50 -249 117 -301 131 -16 4 -67 19 -112 33 -46 14 -95 27 -110 29 -16 3
-59 10 -98 17 -38 6 -81 14 -95 16 -35 6 -395 16 -400 11z"/>
</g>
</svg>
